<?xml version="1.0" standalone="no"?>
<!DOCTYPE svg PUBLIC "-//W3C//DTD SVG 20010904//EN"
 "http://www.w3.org/TR/2001/REC-SVG-20010904/DTD/svg10.dtd">
<svg version="1.0" xmlns="http://www.w3.org/2000/svg"
 width="1080.000000pt" height="1080.000000pt" viewBox="0 0 1080.000000 1080.000000"
 preserveAspectRatio="xMidYMid meet">
<metadata>
Created by potrace 1.14, written by Peter Selinger 2001-2017
</metadata>
<g transform="translate(0.000000,1080.000000) scale(0.100000,-0.100000)"
fill="#000000" stroke="none">
<path d="M0 5400 l0 -5400 5400 0 5400 0 0 5400 0 5400 -5400 0 -5400 0 0
-5400z m2308 1046 l2 -236 -40 0 -40 0 0 233 c0 129 3 237 6 240 4 4 21 5 38
3 l31 -3 3 -237z m483 217 c52 -31 69 -83 69 -216 0 -137 -15 -186 -65 -217
-29 -18 -49 -20 -219 -20 l-186 0 0 35 0 35 170 0 c220 0 210 -8 210 168 0
111 -2 131 -18 145 -15 14 -48 17 -188 19 l-169 3 -3 32 c-2 23 1 32 14 35 10
1 93 2 186 1 140 -2 175 -6 199 -20z m475 19 c12 -7 314 -458 314 -467 0 -3
-21 -5 -47 -5 l-48 1 -113 169 c-61 94 -116 170 -121 170 -4 0 -59 -76 -121
-170 l-113 -170 -49 0 c-37 0 -47 3 -42 13 27 44 289 435 302 450 17 19 22 20
38 9z m1007 -1 c4 0 7 -17 7 -36 l0 -35 -247 0 c-271 0 -283 -3 -283 -61 0
-56 11 -59 238 -59 182 0 212 -2 241 -18 89 -48 95 -182 12 -241 -28 -20 -42
-21 -295 -21 l-266 0 0 35 0 35 203 1 c111 0 220 1 242 1 57 0 85 21 85 62 0
18 -6 38 -12 44 -7 5 -108 12 -225 15 -229 6 -254 12 -289 64 -24 37 -24 119
0 156 23 34 49 49 101 57 32 4 460 6 488 1z m211 3 c14 -5 16 -36 16 -240 l0
-234 -45 0 -45 0 0 233 c0 129 3 237 7 240 8 9 46 9 67 1z m544 -237 l2 -237
-45 0 -45 0 0 234 c0 253 -2 246 55 242 l30 -2 3 -237z m193 221 c0 -13 1 -57
2 -98 l2 -75 209 -3 c231 -3 246 1 246 59 0 52 -26 59 -206 59 -172 0 -173 0
-170 50 l1 25 185 0 c178 0 186 -1 218 -23 60 -43 79 -120 46 -184 -15 -29
-15 -34 0 -65 33 -69 13 -147 -47 -183 -29 -18 -51 -20 -219 -20 l-188 0 0 34
c0 19 6 36 13 38 6 3 80 4 164 3 177 -3 193 3 193 64 0 21 -6 44 -14 50 -9 8
-77 11 -222 9 l-209 -3 0 -95 0 -95 -42 -3 -43 -3 0 240 0 241 40 0 c35 0 40
-3 41 -22z m1182 -11 c60 -46 71 -76 71 -202 0 -60 -3 -122 -7 -137 -8 -29
-53 -88 -68 -88 -5 0 -9 73 -9 165 0 163 0 166 -25 190 -24 24 -28 25 -185 25
l-160 0 0 33 c0 19 3 37 7 41 5 4 83 6 174 4 164 -3 166 -3 202 -31z m659
-192 c82 -121 153 -228 158 -237 10 -16 6 -18 -40 -18 l-50 0 -111 170 c-61
94 -116 170 -123 170 -6 0 -60 -77 -121 -170 l-110 -170 -49 0 c-38 0 -47 3
-43 14 10 27 289 441 305 454 9 7 21 11 27 9 5 -1 76 -101 157 -222z m348 115
l0 -100 212 0 c236 0 248 3 248 65 0 59 -17 64 -206 67 l-169 3 0 30 0 30 188
3 189 2 39 -39 c47 -46 55 -110 23 -172 -25 -48 -60 -63 -166 -67 -54 -2 -98
-7 -98 -11 0 -4 54 -44 120 -91 66 -46 120 -85 120 -87 0 -2 -26 -3 -57 -3
-57 0 -60 2 -187 95 l-130 95 -63 0 -63 0 0 -95 0 -95 -40 0 -40 0 0 235 0
235 40 0 40 0 0 -100z m730 -135 l0 -235 -40 0 -40 0 0 235 0 235 40 0 40 0 0
-235z m501 196 c38 -38 39 -40 40 -112 0 -41 0 -99 1 -129 0 -107 0 -111 -41
-151 l-39 -39 -189 2 -188 3 0 30 0 30 173 5 c157 5 175 7 188 24 10 15 14 53
14 146 0 110 -2 129 -18 143 -15 14 -48 17 -188 19 l-169 3 -3 33 -3 32 192 0
191 0 39 -39z m-2691 -150 c0 -141 3 -172 16 -185 18 -18 10 -17 174 -21 185
-3 170 0 170 -40 l0 -35 -171 0 c-156 0 -175 2 -205 21 -63 38 -74 71 -74 213
0 130 5 152 43 194 43 47 47 34 47 -147z m2608 44 c-3 -3 -9 2 -12 12 -6 14
-5 15 5 6 7 -7 10 -15 7 -18z m-3690 -82 l-3 -38 -145 0 -145 0 -3 38 -3 37
151 0 151 0 -3 -37z m-1569 -190 c-42 -57 -40 -56 -71 -26 -15 15 -28 30 -28
35 0 4 25 8 56 8 52 0 55 -1 43 -17z m3651 9 c0 -5 -13 -20 -28 -35 -27 -26
-29 -26 -43 -10 -46 55 -46 53 15 53 31 0 56 -4 56 -8z m-2167 -464 c45 -32
87 -115 87 -174 0 -173 -243 -277 -362 -153 -59 62 -62 140 -9 235 62 108 198
152 284 92z m-1999 6 c87 -22 235 -96 279 -139 101 -98 102 -155 7 -525 -39
-151 -76 -299 -82 -327 -7 -29 -16 -53 -21 -53 -4 0 -6 -4 -2 -10 9 -14 -6
-61 -17 -54 -6 4 -8 -2 -3 -15 4 -13 4 -34 0 -49 -5 -21 -8 -23 -16 -11 -7 10
-8 5 -4 -17 4 -23 2 -33 -9 -37 -9 -4 -16 -11 -16 -17 0 -6 5 -8 12 -4 8 5 9
2 5 -10 -4 -10 -7 -25 -7 -34 0 -15 -2 -15 -10 -2 -8 11 -9 8 -4 -13 5 -22 2
-32 -15 -43 -12 -9 -18 -20 -15 -26 4 -6 10 -5 15 3 6 9 9 10 9 2 0 -22 -12
-43 -26 -43 -16 0 -19 -16 -4 -25 17 -10 11 -32 -10 -38 -25 -6 -26 -24 -2
-29 15 -3 14 -6 -5 -23 -13 -11 -23 -29 -23 -40 0 -17 2 -18 11 -5 8 12 10 11
7 -5 -2 -11 -10 -20 -17 -20 -8 0 -16 -6 -18 -12 -3 -7 0 -13 6 -13 12 0 35
-48 32 -66 -1 -7 9 -9 26 -6 l28 5 -25 -25 c-14 -13 -29 -22 -34 -20 -5 3 -5
-1 0 -9 14 -23 13 -36 -6 -57 -12 -13 -15 -23 -9 -29 6 -6 -2 -19 -23 -35 -18
-14 -44 -36 -58 -48 -24 -21 -30 -22 -150 -15 -147 7 -192 19 -231 57 -49 49
-48 76 15 363 31 143 56 266 56 273 0 8 -21 12 -68 12 l-69 0 -18 -76 c-17
-66 -21 -73 -32 -58 -15 21 -17 11 -3 -16 12 -22 -6 -110 -21 -110 -5 0 -9 5
-9 12 0 6 -3 8 -6 5 -4 -4 -2 -13 5 -20 6 -9 8 -27 5 -47 -6 -27 -8 -30 -17
-15 -6 12 -6 20 3 25 7 5 9 13 5 21 -11 16 -26 -22 -20 -51 2 -11 -1 -20 -6
-20 -6 0 -7 -4 -4 -10 3 -5 1 -10 -6 -10 -7 0 -5 -8 6 -20 10 -11 15 -23 12
-27 -4 -3 -7 0 -7 7 0 27 -29 -13 -35 -49 -3 -19 -8 -38 -11 -43 -3 -5 -7 -21
-10 -36 -7 -43 -25 -91 -35 -97 -5 -3 -6 2 -4 12 4 11 1 9 -6 -4 -6 -12 -26
-29 -44 -37 -18 -9 -38 -22 -45 -31 -17 -21 -361 -22 -379 -2 -8 11 9 92 70
333 45 175 83 329 86 342 l5 22 -224 0 c-259 0 -261 1 -251 79 9 67 58 131
128 166 59 29 63 30 238 33 124 3 179 8 182 15 1 7 15 59 29 117 15 58 34 130
41 160 8 30 28 109 44 175 51 206 71 246 171 338 79 73 201 136 305 157 74 15
283 11 349 -6z m3984 -297 c2 -16 -8 -72 -21 -125 -43 -167 -46 -149 23 -154
33 -2 65 -9 71 -15 12 -12 -22 -165 -42 -189 -8 -9 -34 -14 -79 -14 l-67 0
-22 -87 c-23 -88 -27 -105 -54 -218 -8 -33 -42 -168 -76 -300 -33 -132 -61
-250 -61 -261 0 -18 30 -49 83 -85 10 -7 -26 -164 -43 -185 -9 -10 -38 -14
-114 -14 -173 0 -251 38 -311 151 -47 89 -49 171 -7 289 3 8 11 42 18 75 7 33
19 87 27 120 54 218 88 355 97 385 35 128 35 129 -35 130 -67 0 -85 9 -85 41
0 15 4 38 9 51 5 13 14 41 20 64 13 50 40 64 120 64 l59 0 31 127 c24 99 37
133 58 155 l27 28 186 -2 185 -3 3 -28z m-3157 -293 c28 -9 48 -22 46 -28 -2
-6 -24 -90 -47 -186 -24 -96 -48 -179 -54 -185 -6 -5 -12 -32 -13 -58 -1 -28
-8 -56 -17 -66 -9 -10 -13 -20 -10 -24 8 -8 -17 -117 -27 -112 -4 3 -5 -4 -2
-15 4 -14 -3 -30 -17 -45 -13 -14 -18 -25 -12 -25 7 0 12 -7 12 -15 0 -8 -5
-15 -10 -15 -6 0 -8 -10 -5 -23 4 -16 0 -29 -14 -41 -21 -19 -29 -42 -11 -31
6 3 10 -1 10 -10 0 -9 -4 -13 -10 -10 -10 6 -26 -42 -16 -52 3 -3 -1 -11 -9
-17 -8 -6 -16 -27 -19 -46 -2 -19 -8 -46 -12 -59 -5 -19 -4 -22 6 -16 10 6 12
3 8 -13 -8 -28 -3 -28 58 7 56 33 104 83 133 139 10 20 69 240 131 487 62 248
117 456 122 463 8 9 112 12 458 12 424 0 448 -1 464 -19 14 -16 15 -25 6 -62
-6 -24 -18 -71 -26 -104 -9 -33 -18 -73 -21 -90 -3 -16 -9 -34 -13 -40 -4 -5
-10 -28 -14 -50 -4 -22 -11 -51 -16 -65 -4 -14 -20 -77 -35 -140 -15 -63 -31
-120 -36 -126 -5 -6 -6 -14 -2 -17 3 -4 1 -17 -5 -30 -6 -12 -16 -44 -21 -72
-5 -27 -15 -68 -21 -90 -32 -111 -34 -135 -15 -173 10 -20 18 -40 17 -44 -1
-5 11 -8 27 -8 l29 0 -29 -97 c-42 -140 -45 -143 -129 -143 -134 0 -248 48
-304 128 -56 79 -52 109 68 585 59 230 104 423 101 428 -4 5 -30 9 -60 9 -43
0 -55 -4 -59 -17 -2 -10 -15 -60 -27 -110 -13 -51 -27 -93 -32 -93 -4 0 -5 -5
-1 -11 6 -11 -9 -77 -26 -109 -4 -9 -11 -40 -15 -70 -4 -30 -12 -61 -17 -67
-6 -7 -7 -13 -3 -13 3 0 -3 -12 -14 -26 -12 -15 -21 -33 -21 -40 0 -7 -10 -30
-22 -51 -139 -246 -352 -439 -563 -511 -78 -26 -85 -27 -330 -27 -244 0 -250
0 -249 20 2 18 18 90 44 195 12 48 35 139 59 240 12 47 26 101 31 120 24 86
159 642 170 700 7 36 20 71 28 78 25 20 339 17 403 -4z m2423 3 c16 -12 17
-18 7 -48 -6 -19 -15 -54 -20 -79 -5 -25 -17 -74 -26 -110 -10 -36 -21 -81
-25 -100 -4 -19 -49 -197 -99 -394 -85 -333 -90 -360 -75 -377 9 -10 22 -15
29 -13 22 9 49 -53 37 -85 -6 -14 -13 -44 -17 -66 -13 -79 -23 -85 -133 -85
-133 0 -229 29 -268 79 -9 12 -20 9 -65 -16 -82 -47 -149 -63 -263 -63 -194 0
-326 63 -389 185 -37 73 -28 142 62 503 44 178 89 343 100 367 63 143 209 253
396 300 74 19 724 20 749 2z m1505 2 c195 -33 314 -162 298 -323 -4 -34 -23
-124 -43 -201 -20 -77 -39 -156 -43 -175 -42 -194 -90 -340 -130 -399 -70
-104 -227 -208 -369 -245 -131 -33 -349 -14 -453 39 -36 19 -156 141 -176 178
-20 39 -27 123 -15 172 11 44 42 165 74 290 26 103 47 189 58 240 12 58 19 73
62 146 58 100 144 171 278 229 126 55 308 74 459 49z m946 -12 c12 -16 19 -17
47 -8 102 32 372 41 400 13 9 -9 3 -50 -31 -187 -25 -99 -50 -180 -59 -187
-20 -17 -204 -24 -241 -8 -15 6 -51 13 -80 14 -51 3 -52 3 -85 -43 -64 -88
-98 -181 -151 -411 -10 -41 -31 -127 -48 -190 -30 -117 -35 -137 -60 -247 -23
-99 -12 -94 -231 -91 -140 2 -190 6 -189 15 2 6 -13 17 -32 23 -19 6 -35 16
-35 21 0 5 -7 9 -15 9 -17 0 -20 16 -6 25 6 3 9 13 9 23 -1 24 42 213 53 234
5 10 9 29 9 42 0 14 5 28 10 31 6 4 8 10 5 15 -3 5 -1 19 4 32 5 13 17 59 26
103 10 44 21 89 26 100 5 11 13 43 18 70 5 28 21 95 36 150 14 55 33 129 41
165 14 60 29 120 52 213 13 50 38 77 73 77 15 0 31 5 35 11 4 8 68 10 206 8
180 -4 201 -6 213 -22z m-6315 -1127 c0 -5 -2 -10 -4 -10 -3 0 -8 5 -11 10 -3
6 -1 10 4 10 6 0 11 -4 11 -10z m700 -50 c0 -5 -5 -10 -11 -10 -5 0 -7 5 -4
10 3 6 8 10 11 10 2 0 4 -4 4 -10z m630 -885 l0 -74 153 -3 152 -3 0 -35 0
-35 -155 -5 -155 -5 1 -77 c1 -43 4 -84 7 -93 5 -13 31 -15 158 -15 134 0 150
-2 145 -16 -3 -9 -6 -24 -6 -35 0 -18 -9 -19 -179 -19 -175 0 -179 0 -205 25
l-26 24 0 221 0 220 55 0 55 0 0 -75z m1060 -170 l0 -245 -55 0 -55 0 0 245 0
245 55 0 55 0 0 -245z m-210 55 l0 -40 -177 -2 -178 -3 0 -90 0 -90 178 -3
177 -2 0 -35 0 -35 -204 0 c-200 0 -203 0 -229 24 -32 30 -41 75 -35 176 8
131 23 139 281 140 l187 0 0 -40z m770 0 l0 -40 -177 -2 -178 -3 0 -90 0 -90
178 -3 177 -2 0 -35 0 -35 -199 0 -199 0 -31 26 -31 26 0 110 c0 60 5 118 11
129 21 41 63 48 262 49 l187 0 0 -40z m560 0 l0 -40 -177 -2 -178 -3 0 -90 0
-90 178 -3 177 -2 0 -35 0 -35 -195 0 c-204 0 -244 7 -259 45 -10 28 -7 225 5
246 21 41 63 48 262 49 l187 0 0 -40z m185 -85 c1 -66 4 -126 8 -132 6 -9 37
-13 98 -13 l89 0 0 -35 0 -35 -119 0 c-112 0 -122 2 -148 24 -27 23 -28 29
-31 126 -4 114 6 153 47 175 52 29 56 21 56 -110z m327 96 c32 -28 33 -32 37
-120 1 -51 0 -103 -3 -117 -9 -34 -53 -74 -82 -74 -24 0 -24 0 -24 130 l0 130
-95 0 -95 0 0 40 0 40 115 0 c113 0 115 -1 147 -29z m606 -8 l-3 -38 -198 -3
-198 -2 3 -23 c3 -21 7 -22 168 -27 106 -3 173 -10 187 -18 59 -34 70 -103 24
-154 l-29 -33 -216 -3 c-173 -2 -216 0 -216 10 0 7 -3 23 -6 36 l-6 22 195 0
c161 0 197 3 207 15 10 12 10 18 1 29 -10 12 -50 15 -181 18 -162 3 -169 4
-194 27 -34 32 -42 80 -21 121 27 53 57 59 283 60 l203 0 -3 -37z m-2448 -138
l0 -35 -150 0 -150 0 0 35 0 35 150 0 150 0 0 -35z m770 0 l0 -35 -143 0 c-79
0 -146 2 -149 5 -2 3 -3 18 0 35 l4 30 144 0 144 0 0 -35z"/>
<path d="M2585 5559 c-57 -50 -54 -43 -157 -439 -22 -85 -43 -168 -47 -185 -5
-16 -11 -40 -15 -52 -7 -22 -6 -23 67 -23 l75 0 17 68 c10 37 21 83 26 102 17
74 39 161 78 314 46 177 48 192 25 224 -20 29 -27 28 -69 -9z"/>
<path d="M5335 5006 c-17 -7 -38 -25 -47 -38 -25 -38 -203 -758 -195 -788 26
-95 154 -101 250 -11 37 34 67 92 83 161 14 66 51 211 64 260 27 96 100 397
100 412 0 16 -11 18 -112 18 -71 -1 -124 -6 -143 -14z"/>
<path d="M7267 4958 c-40 -49 -59 -93 -81 -193 -9 -38 -21 -86 -26 -105 -11
-40 -49 -189 -61 -240 -4 -19 -15 -64 -25 -100 -22 -87 -28 -164 -15 -188 6
-11 23 -23 38 -27 21 -5 31 -1 46 17 10 13 15 16 11 8 -7 -13 -5 -13 9 -2 11
10 14 23 10 43 -4 21 -2 29 8 29 9 0 15 13 16 33 1 17 9 59 18 92 57 207 127
508 132 565 5 61 -8 110 -31 110 -8 0 -30 -19 -49 -42z"/>
<path d="M7180 4179 c0 -5 5 -7 10 -4 6 3 10 8 10 11 0 2 -4 4 -10 4 -5 0 -10
-5 -10 -11z"/>
</g>
</svg>
